inDegrees=no
num_controls=7
num_derivatives=13
num_iterations=123
num_multipliers=7
num_parameters=0
num_slacks=7
num_states=26
objective=5.022233
objective_accelerations=0.560403
objective_balance=0.013207
objective_effort=0.150254
objective_height=4.182080
objective_ligament=0.116289
solver_duration=1357.310170
status=Solve_Succeeded
success=true
DataType=double
version=3
OpenSimVersion=4.4-2022-07-23-0e9fedc
endheader
time	/jointset/ground_pelvis/pelvis_tilt/value	/jointset/ground_pelvis/pelvis_tx/value	/jointset/ground_pelvis/pelvis_ty/value	/jointset/hip_l/hip_flexion_l/value	/jointset/hip_l/hip_adduction_l/value	/jointset/hip_l/hip_rotation_l/value	/jointset/back/lumbar_extension/value	/jointset/patellofemoral_l/patellar_flexion_l/value	/jointset/knee_l/knee_flexion_l/value	/jointset/knee_l/knee_adduction_l/value	/jointset/knee_l/knee_rotation_l/value	/jointset/ankle_l/ankle_angle_l/value	/jointset/subtalar_l/subtalar_angle_l/value	/jointset/ground_pelvis/pelvis_tilt/speed	/jointset/ground_pelvis/pelvis_tx/speed	/jointset/ground_pelvis/pelvis_ty/speed	/jointset/hip_l/hip_flexion_l/speed	/jointset/hip_l/hip_adduction_l/speed	/jointset/hip_l/hip_rotation_l/speed	/jointset/back/lumbar_extension/speed	/jointset/patellofemoral_l/patellar_flexion_l/speed	/jointset/knee_l/knee_flexion_l/speed	/jointset/knee_l/knee_adduction_l/speed	/jointset/knee_l/knee_rotation_l/speed	/jointset/ankle_l/ankle_angle_l/speed	/jointset/subtalar_l/subtalar_angle_l/speed	/forceset/tau_hip_flexion_l	/forceset/tau_hip_adduction_l	/forceset/tau_hip_rotation_l	/forceset/tau_knee_flexion_l	/forceset/tau_ankle_angle_l	/forceset/tau_subtalar_angle_l	/forceset/tau_lumbar_extension	lambda_cid13_p0	lambda_cid13_p1	lambda_cid13_p2	lambda_cid13_p3	lambda_cid13_p4	lambda_cid13_p5	lambda_cid14_p0	/jointset/ground_pelvis/pelvis_tilt/accel	/jointset/ground_pelvis/pelvis_tx/accel	/jointset/ground_pelvis/pelvis_ty/accel	/jointset/hip_l/hip_flexion_l/accel	/jointset/hip_l/hip_adduction_l/accel	/jointset/hip_l/hip_rotation_l/accel	/jointset/back/lumbar_extension/accel	/jointset/patellofemoral_l/patellar_flexion_l/accel	/jointset/knee_l/knee_flexion_l/accel	/jointset/knee_l/knee_adduction_l/accel	/jointset/knee_l/knee_rotation_l/accel	/jointset/ankle_l/ankle_angle_l/accel	/jointset/subtalar_l/subtalar_angle_l/accel	gamma_cid13_p0	gamma_cid13_p1	gamma_cid13_p2	gamma_cid13_p3	gamma_cid13_p4	gamma_cid13_p5	gamma_cid14_p0
0.5	-0.1461079235032776	0.0462489240479317	0.7967836229409148	0.8410900715842256	-0.3607888522370472	-0.03678896755967947	-0.3944957589377732	0.882206999377219	0.8822069993773095	-0.02812897531924159	-0.1744879951277964	0.3108869985523707	0.1664453947437982	-0.5851628282442625	-0.1346576541970461	-0.4263883141060062	1.990023159112855	-0.008725369629539004	0.5176894458024874	-0.3201243563565793	1.795934201334484	1.795934201334517	0.2088720872118826	0.0004296774354744545	0.5323711617744391	0.2119354353574716	-0.07663876582580102	0.02226732631753429	-0.001325857175554635	-0.206295223660456	0.001115817258339167	0.02104956057533253	0.1004587609013246	-23.70065655601536	-4.668491281965872	0.09373776090061417	0.923883204459687	-444.7949389442504	-74.34813802043438	-7.617333669310264	0.11391519871308	0.2834738466755237	-0.3597799795340752	-0.9444575854864156	0.1553066656638827	-0.5541033147165968	1.267296686112229	-1.466195896132557	-1.466195896132588	-0.2543245515556781	0.01115592567222251	-0.7495738403774437	0.1262990496291862	-3.271552802882302e-07	-1.182389379012469e-06	3.55383183282544e-06	2.553824616716212e-08	-7.027575364984252e-07	-1.629176902351698e-06	-5.2494272340337e-07
0.51	-0.1519522975327401	0.04491674272816117	0.7925028147177536	0.860938920536107	-0.3608702184886368	-0.03163765594019464	-0.3976341541841168	0.9000897099607147	0.9000897099607781	-0.0260585275021408	-0.1744840606361558	0.3161717669003931	0.1685677921607988	-0.5836362629824482	-0.1317621610992076	-0.4296753083874033	1.979472864420998	-0.007543091114517102	0.5125118033479531	-0.307518848575051	1.780345519017539	1.780345519017557	0.2052293340435565	0.000351968242396363	0.524506034855492	0.2125122114936801	-0.08046999195077234	0.02339892715093646	-0.001704368780593776	-0.208348857906543	-0.0006459511124301669	0.02163056073499067	0.1034683604583336	-24.37107866986304	-4.726258609654215	0.01479425592690301	1.114346615127777	-447.431006895352	-74.49795820347853	-6.909705924455572	0.1833490894685996	0.295058587133338	-0.2985959436472471	-1.151427426977908	0.0999487337445945	-0.5092722073025039	1.262554474404862	-1.644457366913945	-1.644457366916618	-0.4175685484035151	-0.01739485472508744	-0.8165223138811337	0.01835924931550815	-3.229583314799561e-07	-1.099637391233558e-06	3.559360393004708e-06	3.568541894963075e-08	-6.838860270936884e-07	-1.514313329732982e-06	-5.23322009231576e-07
0.52	-0.1577791415296559	0.04361401064852592	0.7881920491935371	0.8806740441379075	-0.3609397098972004	-0.02654005624452077	-0.4006454190225898	0.9178086831275559	0.9178086831275628	-0.02402417078674453	-0.1744809353389296	0.3213755759399826	0.1706949558099039	-0.5816568217385421	-0.1287678061699912	-0.4323797743170025	1.967278089091366	-0.006350401026669126	0.5069470610342223	-0.2946982747842182	1.763186718003071	1.763186718003072	0.2016538669180032	0.0002678385322328323	0.5161793000874557	0.2128886817778688	-0.08430121807552803	0.02453052798477696	-0.002082880386769313	-0.2104024921525258	-0.002407719483046001	0.02221156089533927	0.1064779600154873	-25.03754312299815	-4.792780856245286	-0.0535431766815026	1.274948583497511	-450.0176973531383	-74.73130615448424	-6.24221722254977	0.2044903951309629	0.3032462129513718	-0.2432743091744989	-1.273353713041656	0.1573889802288117	-0.6315232865563549	1.310309887973161	-1.780219635637249	-1.780219635637209	-0.2408673430011969	0.009871822254590788	-0.8418954101949431	0.08623787922505971	-3.145392425396183e-07	-8.514146879563134e-07	3.525305466347344e-06	6.488750765646835e-08	-6.501975466426866e-07	-1.29022504311499e-06	-5.049339066336312e-07
0.53	-0.1635840128923879	0.04234168581397503	0.7838571341122451	0.9002793504280622	-0.3609971300162628	-0.02149950421553239	-0.403527465283227	0.9353486555624476	0.9353486555624742	-0.02202533870166241	-0.1744783653184698	0.3264940445900302	0.1728250327569167	-0.5792375833666336	-0.1256829216844585	-0.4345051763389524	1.953518987417701	-0.005134329634685842	0.5011033792566217	-0.2816944744597962	1.744574868468184	1.744574868468179	0.1981230120822901	0.0002326414898631308	0.5074541695481564	0.2130915560067219	-0.08804034244200321	0.02543715545237416	-0.002396327476734075	-0.212644900270491	-0.003990217298361453	0.02268105717672061	0.1093878738644812	-25.65963961222144	-4.807132472202112	-0.1433502799098872	1.429999330940438	-452.6291972839032	-74.91236445996972	-5.615125395272749	0.2725883187583658	0.3132614705655756	-0.182589808833835	-1.466859441348205	0.1031241263469012	-0.5702552003844172	1.29789053695613	-1.936503633147783	-1.936503633149193	-0.4076709202132702	-0.01161261483849728	-0.8969108047865469	-0.0182637499383993	-3.042123984594946e-07	-6.199168091603434e-07	3.464881620904067e-06	9.155445704434539e-08	-6.169631348432193e-07	-1.070430358169827e-06	-4.842739209802853e-07
